<svg xmlns="http://www.w3.org/2000/svg" viewBox="232.5 792.5 560 560"><path d="M771.985 1278.658l-31.052-54.604 20.483-7.961c6.887-2.677 11.736-8.932 12.613-16.269.877-7.336-2.362-14.559-8.425-18.782l-37.131-25.873 40.054-164.756c2.469-10.151.265-20.58-6.048-28.612-7.032-8.947-18.362-14.078-31.088-14.078h-25.461v-20.607c0-23.196-18.872-42.068-42.068-42.068h-186.124c-.65-1.781-1.368-3.954-2.002-5.883-.472-1.436-.966-2.937-1.497-4.499-8.14-32.911-31.539-36.49-41.297-36.49h-97.547c-9.758 0-33.156 3.579-41.297 36.489-.53 1.563-1.024 3.065-1.497 4.501-.656 1.994-1.402 4.258-2.069 6.07-21.37 1.98-38.159 20.003-38.159 41.88v291.302c0 23.197 18.872 42.069 42.069 42.069h314.993l.648 9c.531 7.369 5.082 13.846 11.835 16.843 6.753 2.999 14.608 2.027 20.43-2.522l17.313-13.532 31.052 54.604c2.622 4.611 6.969 7.991 12.084 9.397 1.742.479 3.525.716 5.301.716 3.438 0 6.848-.886 9.888-2.615l46.503-26.445c9.599-5.463 12.956-17.673 7.496-27.275zm-35.759-83.35l-27.208 10.574c-2.303.896-4.103 2.748-4.93 5.076-.828 2.328-.602 4.9.62 7.049l38.301 67.352-31.726 18.042-38.301-67.352c-1.222-2.147-3.316-3.657-5.74-4.137-.548-.108-1.1-.161-1.648-.161-1.882 0-3.728.625-5.234 1.803l-22.997 17.976-9.491-131.725 108.354 75.503zm-128-110.049c-6.701 3.812-10.615 11.134-10.062 18.823l8.356 115.965h-308.262l55.729-229.234c.802-1.131 3.792-3.09 7.101-3.09h366.929l-34.744 142.918-63.726-44.405c-6.325-4.408-14.62-4.789-21.321-.977z"/></svg>
