<svg xmlns="http://www.w3.org/2000/svg" viewBox="256 816 512 512"><path d="M761.988 1284.343l-37.636-66.182 32.898-12.786c2.927-1.138 4.988-3.796 5.361-6.914.372-3.118-1.005-6.188-3.581-7.982l-43.592-30.375 41.914-172.409c1.654-6.798.264-13.471-3.915-18.787-4.837-6.155-12.872-9.685-22.046-9.685h-36.961v-32.107c0-16.855-13.713-30.568-30.568-30.568h-189.967c-3.673 0-4.546 0-9.083-13.788-.509-1.549-1.045-3.175-1.625-4.875-5.892-24.533-21.458-28.209-30.246-28.209h-97.547c-8.787 0-24.351 3.68-30.245 28.209-.58 1.7-1.116 3.327-1.625 4.876-4.537 13.787-5.41 13.787-9.083 13.787-16.856 0-30.569 13.713-30.569 30.568v291.302c0 16.856 13.713 30.569 30.569 30.569h325.694l1.418 19.673c.226 3.133 2.159 5.885 5.029 7.159 2.871 1.273 6.209.861 8.683-1.072l27.807-21.735 37.637 66.183c1.114 1.959 2.962 3.396 5.135 3.994.741.203 1.499.304 2.254.304 1.46 0 2.91-.377 4.202-1.111l46.503-26.446c4.079-2.323 5.506-7.512 3.185-11.593zm-442.316-396.27c.528-1.605 1.085-3.298 1.693-5.072.093-.271.172-.547.237-.825 3.617-15.501 11.008-15.501 13.791-15.501h97.547c2.783 0 10.175 0 13.792 15.5.065.279.145.555.237.826.608 1.774 1.165 3.467 1.693 5.071.94 2.856 1.889 5.732 2.991 8.475h-134.971c1.102-2.741 2.05-5.618 2.99-8.474zm-38.8 39.042c0-7.481 6.087-13.568 13.569-13.568h369.422c7.481 0 13.568 6.087 13.568 13.568v32.107h-316.343c-16.121 0-31.361 10.741-34.696 24.455l-45.52 187.241v-243.803zm14.011 304.432c-3.865 0-7.11-1.192-8.679-3.188-.926-1.178-1.176-2.574-.764-4.268l57.47-236.396c1.32-5.426 9.109-11.472 18.178-11.472h370.305c3.865 0 7.11 1.192 8.68 3.188.926 1.178 1.175 2.573.763 4.267l-40.356 166.001-77.507-54.008c-2.688-1.872-6.212-2.034-9.062-.415-2.848 1.619-4.512 4.731-4.275 7.999l9.244 128.292h-323.997zm416.4 71.853l-38.301-67.352c-1.222-2.147-3.316-3.657-5.74-4.137-.548-.108-1.1-.161-1.648-.161-1.882 0-3.728.625-5.234 1.803l-22.997 17.976-9.491-131.725 108.354 75.503-27.208 10.574c-2.303.896-4.103 2.748-4.93 5.076-.828 2.328-.602 4.9.62 7.049l38.301 67.352-31.726 18.042z"/></svg>
