<svg xmlns="http://www.w3.org/2000/svg"viewBox="0 0 619 619"><path d="M621 549c0 13.807-11.193 25-25 25H471c-13.807 0-25-11.193-25-25V424c0-13.807 11.193-25 25-25h125c13.807 0 25 11.193 25 25v125zM398 549c0 13.807-11.193 25-25 25H248c-13.807 0-25-11.193-25-25V424c0-13.807 11.193-25 25-25h125c13.807 0 25 11.193 25 25v125zM175 549c0 13.807-11.193 25-25 25H25c-13.807 0-25-11.193-25-25V424c0-13.807 11.193-25 25-25h125c13.807 0 25 11.193 25 25v125z"/><path fill="none" stroke="#000" stroke-width="40" stroke-miterlimit="10" d="M87.5 486.558l.5-144.529C88 325.46 101.432 312 118 312h386c16.568 0 30 13.432 30 30v145M311 137v350"/><path d="M223 75c0-13.807 11.193-25 25-25h125c13.807 0 25 11.193 25 25v125c0 13.807-11.193 25-25 25H248c-13.807 0-25-11.193-25-25V75z"/></svg>
