<svg xmlns="http://www.w3.org/2000/svg" xmlns:xlink="http://www.w3.org/1999/xlink" version="1.1" x="0px" y="0px" viewBox="0 0 512 512" enable-background="new 0 0 512 512" xml:space="preserve"><path d="M484.3,165.8h-39.4v-38.4c0-15-12.2-27.3-27.3-27.3H220.8c-4.7,0-8.8-3-10.3-7.4l-7.7-23.1c-3.7-11.2-14.1-18.6-25.9-18.6  H73.2c-11.8,0-22.1,7.5-25.9,18.6l-7.7,23.1c-1.5,4.4-5.6,7.4-10.3,7.4c-15,0-27.3,12.2-27.3,27.3v306.4c0,15,12.2,27.3,27.3,27.3  h391.6c12.8,0,24.6-9.1,28-21.8l60.3-240.6C511.3,190.5,511.3,165.8,484.3,165.8z M18.4,127.4c0-6,4.9-10.9,10.9-10.9  c11.8,0,22.1-7.5,25.9-18.6l7.7-23.1c1.5-4.4,5.6-7.4,10.3-7.4h103.8c4.7,0,8.8,3,10.3,7.4l7.7,23.1c3.7,11.1,14.1,18.6,25.9,18.6  h196.9c6,0,10.9,4.9,10.9,10.9v38.4h-332c-12.8,0-24.6,9.1-28,21.8L18.4,388V127.4z M493.3,194.6L433,435.2  c-1.5,5.4-6.6,9.5-12.1,9.5H33.2c-9.8,0-9.8-9.1-9-12.4l60.3-240.6c1.4-5.4,6.6-9.5,12.1-9.5h387.7  C493.5,182.2,494.2,191.2,493.3,194.6z"/></svg>
