<svg xmlns="http://www.w3.org/2000/svg" viewBox="0 0 619 619"><path d="M596 399h-42v-57c0-27.6-22.4-50-50-50h-173v-67h42c13.8 0 25-11.2 25-25v-125c0-13.8-11.2-25-25-25h-125c-13.8 0-25 11.2-25 25v125c0 13.8 11.2 25 25 25h43v67h-173c-27.6 0-50 22.4-50 50l-.2 57h-42.8c-13.8 0-25 11.2-25 25v125c0 13.8 11.2 25 25 25h125c13.8 0 25-11.2 25-25v-125c0-13.8-11.2-25-25-25h-42.2l.2-57c0-5.5 4.5-10 10-10h173v67h-43c-13.8 0-25 11.2-25 25v125c0 13.8 11.2 25 25 25h125c13.8 0 25-11.2 25-25v-125c0-13.8-11.2-25-25-25h-42v-67h173c5.5 0 10 4.5 10 10v57h-43c-13.8 0-25 11.2-25 25v125c0 13.8 11.2 25 25 25h125c13.8 0 25-11.2 25-25v-125c0-13.8-11.2-25-25-25z"/></svg>
