<svg xmlns="http://www.w3.org/2000/svg" viewBox="243 152 306 306"><path d="M280.713 362.289l.033.027-3.958 3.887-3.276 4.557-2.558 4.56-1.325 4.584-2.629 9.764-1.312 9.793-1.967 10.463-1.252 5.197-1.959 5.908-2.653 5.879-3.288 5.869-4.521 6.5-5.226 6.514-.039.002-1.93 3.295v1.316l.669.619 1.974 1.993 3.24 1.287 4.556.664h5.873l7.189-.68 7.221-1.308 8.455-1.323 8.465-2.556 9.147-2.608 9.16-3.92 8.442-3.912 8.481-5.236 7.836-5.865 7.19-5.911h-.008l3.282-3.218 1.947-3.307 1.967-3.277 1.275-3.233.673-3.252.612-3.302v-7.151l-1.919-7.197-3.273-7.184-3.912-6.5-5.876-6.476.023-.033-6.51-5.856-7.202-3.933-7.224-3.284-7.154-1.947h-7.196l-3.274.633-3.935.652-3.284 1.338-3.242 1.924-3.279 2.607-2.539 2.659.006-.024h.033l-.009.031zM547.562 156.751v-.005l-1.309-1.316h-1.953l-3.279.678-3.244 1.277-8.504 3.925-10.413 5.897-12.415 7.84-13.678 9.147-29.354 21.539-30.657 24.139-30.018 24.123-25.45 22.204-19.621 18.28.031-.031-13.035 13.054-9.151 10.447-11.07 14.985-.036.009-.61 1.276v1.994l1.919 1.285 1.35.639 5.2 3.285 5.232 3.228 5.236 3.93 5.262 4.58-.036.01 4.56 5.23 3.921 4.528 3.282 5.261 3.267 5.202.006.029.665 1.283 1.318 1.963 1.314.641 2.568-1.293.003.009 15.002-11.105 10.466-9.115 13.696-12.401-.026-.002 18.271-18.939 22.176-25.456 24.8-29.383 24.163-30.011 22.156-29.348 9.157-13.028 7.859-11.758 6.486-10.461 3.949-8.485 1.314-3.27.521-3.208-.618-1.997-.701-1.305.001-.013.03.005-.002.029z"/></svg>
